<svg xmlns="http://www.w3.org/2000/svg" width="640" height="640" viewBox="0 0 640 640">
<rect width="640" height="640" fill="#0b0b10"/>
<circle cx="175" cy="281" r="1" fill="hsla(13,60%,75%,0.18)"/>
<circle cx="186" cy="357" r="1" fill="hsla(15,60%,75%,0.18)"/>
<circle cx="474" cy="223" r="1" fill="hsla(36,60%,75%,0.18)"/>
<circle cx="436" cy="460" r="1" fill="hsla(32,60%,75%,0.18)"/>
<circle cx="240" cy="310" r="1" fill="hsla(25,60%,75%,0.18)"/>
<circle cx="70" cy="615" r="1" fill="hsla(356,60%,75%,0.18)"/>
<circle cx="443" cy="357" r="2" fill="hsla(351,60%,75%,0.18)"/>
<circle cx="438" cy="24" r="2" fill="hsla(15,60%,75%,0.18)"/>
<circle cx="11" cy="611" r="2" fill="hsla(35,60%,75%,0.18)"/>
<circle cx="77" cy="469" r="1" fill="hsla(6,60%,75%,0.18)"/>
<circle cx="332" cy="83" r="1" fill="hsla(0,60%,75%,0.18)"/>
<circle cx="467" cy="391" r="1" fill="hsla(9,60%,75%,0.18)"/>
<circle cx="390" cy="189" r="2" fill="hsla(354,60%,75%,0.18)"/>
<circle cx="409" cy="441" r="2" fill="hsla(8,60%,75%,0.18)"/>
<circle cx="341" cy="333" r="2" fill="hsla(352,60%,75%,0.18)"/>
<circle cx="636" cy="223" r="2" fill="hsla(30,60%,75%,0.18)"/>
<circle cx="419" cy="396" r="1" fill="hsla(24,60%,75%,0.18)"/>
<circle cx="441" cy="195" r="2" fill="hsla(18,60%,75%,0.18)"/>
<circle cx="436" cy="381" r="1" fill="hsla(24,60%,75%,0.18)"/>
<circle cx="568" cy="583" r="2" fill="hsla(21,60%,75%,0.18)"/>
<circle cx="565" cy="53" r="1" fill="hsla(20,60%,75%,0.18)"/>
<circle cx="471" cy="126" r="2" fill="hsla(351,60%,75%,0.18)"/>
<circle cx="194" cy="28" r="2" fill="hsla(25,60%,75%,0.18)"/>
<circle cx="422" cy="325" r="2" fill="hsla(354,60%,75%,0.18)"/>
<circle cx="214" cy="23" r="2" fill="hsla(8,60%,75%,0.18)"/>
<circle cx="158" cy="304" r="2" fill="hsla(13,60%,75%,0.18)"/>
<circle cx="498" cy="57" r="1" fill="hsla(8,60%,75%,0.18)"/>
<circle cx="79" cy="618" r="2" fill="hsla(18,60%,75%,0.18)"/>
<circle cx="580" cy="602" r="1" fill="hsla(353,60%,75%,0.18)"/>
<circle cx="156" cy="50" r="2" fill="hsla(352,60%,75%,0.18)"/>
<circle cx="555" cy="0" r="1" fill="hsla(38,60%,75%,0.18)"/>
<circle cx="537" cy="505" r="1" fill="hsla(3,60%,75%,0.18)"/>
<circle cx="33" cy="416" r="2" fill="hsla(352,60%,75%,0.18)"/>
<circle cx="188" cy="626" r="2" fill="hsla(29,60%,75%,0.18)"/>
<circle cx="624" cy="24" r="1" fill="hsla(7,60%,75%,0.18)"/>
<circle cx="23" cy="259" r="2" fill="hsla(20,60%,75%,0.18)"/>
<circle cx="571" cy="69" r="1" fill="hsla(14,60%,75%,0.18)"/>
<circle cx="438" cy="561" r="1" fill="hsla(10,60%,75%,0.18)"/>
<circle cx="216" cy="517" r="1" fill="hsla(348,60%,75%,0.18)"/>
<circle cx="20" cy="588" r="1" fill="hsla(24,60%,75%,0.18)"/>
<circle cx="100" cy="479" r="2" fill="hsla(39,60%,75%,0.18)"/>
<circle cx="71" cy="563" r="1" fill="hsla(5,60%,75%,0.18)"/>
<circle cx="142" cy="419" r="2" fill="hsla(41,60%,75%,0.18)"/>
<circle cx="406" cy="286" r="1" fill="hsla(30,60%,75%,0.18)"/>
<circle cx="383" cy="435" r="1" fill="hsla(355,60%,75%,0.18)"/>
<circle cx="464" cy="609" r="1" fill="hsla(40,60%,75%,0.18)"/>
<circle cx="414" cy="167" r="1" fill="hsla(29,60%,75%,0.18)"/>
<circle cx="8" cy="92" r="1" fill="hsla(38,60%,75%,0.18)"/>
<circle cx="273" cy="446" r="2" fill="hsla(356,60%,75%,0.18)"/>
<circle cx="315" cy="204" r="2" fill="hsla(5,60%,75%,0.18)"/>
<circle cx="320" cy="150" r="70" fill="none" stroke="hsla(53,70%,65%,0.50)" stroke-width="1.5"/>
<circle cx="320" cy="150" r="44" fill="hsl(13,55%,37%)" stroke="hsl(28,70%,62%)" stroke-width="2"/>
<circle cx="325" cy="212" r="38" fill="hsl(13,55%,35%)" stroke="hsl(28,70%,60%)" stroke-width="2"/>
<path d="M 354 212 Q 415 223 474 220" fill="none" stroke="hsla(38,65%,55%,0.90)" stroke-width="6" stroke-linecap="round"/>
<path d="M 286 212 Q 225 223 166 220" fill="none" stroke="hsla(38,65%,55%,0.90)" stroke-width="6" stroke-linecap="round"/>
<circle cx="322" cy="267" r="33" fill="hsl(13,55%,33%)" stroke="hsl(28,70%,58%)" stroke-width="2"/>
<circle cx="323" cy="316" r="27" fill="hsl(13,55%,31%)" stroke="hsl(28,70%,56%)" stroke-width="2"/>
<circle cx="326" cy="358" r="22" fill="hsl(13,55%,29%)" stroke="hsl(28,70%,54%)" stroke-width="2"/>
<path d="M 338 358 Q 367 407 465 363" fill="none" stroke="hsla(38,65%,55%,0.90)" stroke-width="3" stroke-linecap="round"/>
<path d="M 302 358 Q 273 407 175 363" fill="none" stroke="hsla(38,65%,55%,0.90)" stroke-width="3" stroke-linecap="round"/>
<circle cx="324" cy="394" r="16" fill="hsl(13,55%,27%)" stroke="hsl(28,70%,52%)" stroke-width="2"/>
<path d="M 332 394 Q 407 373 464 412" fill="none" stroke="hsla(38,65%,55%,0.90)" stroke-width="2" stroke-linecap="round"/>
<path d="M 308 394 Q 233 373 176 412" fill="none" stroke="hsla(38,65%,55%,0.90)" stroke-width="2" stroke-linecap="round"/>
<circle cx="305" cy="149" r="9" fill="hsl(193,90%,88%)"/>
<circle cx="305" cy="149" r="4" fill="#0b0b10"/>
<circle cx="335" cy="149" r="9" fill="hsl(193,90%,88%)"/>
<circle cx="335" cy="149" r="4" fill="#0b0b10"/>
<circle cx="275" cy="150" r="9" fill="hsl(193,90%,88%)"/>
<circle cx="275" cy="150" r="4" fill="#0b0b10"/>
<circle cx="365" cy="147" r="9" fill="hsl(193,90%,88%)"/>
<circle cx="365" cy="147" r="4" fill="#0b0b10"/>
<circle cx="325" cy="151" r="2" fill="hsla(73,80%,70%,0.80)"/>
<circle cx="360" cy="172" r="2" fill="hsla(73,80%,70%,0.80)"/>
<circle cx="312" cy="139" r="2" fill="hsla(73,80%,70%,0.80)"/>
<circle cx="321" cy="177" r="2" fill="hsla(73,80%,70%,0.80)"/>
<circle cx="355" cy="163" r="2" fill="hsla(73,80%,70%,0.80)"/>
<text x="320" y="584" text-anchor="middle" fill="hsl(13,40%,80%)" font-family="serif" font-size="24">Shaektias of the House of Shouvys</text>
<text x="320" y="610" text-anchor="middle" fill="hsl(13,25%,60%)" font-family="serif" font-size="14">generation 13 · saeculum 1 · Historia vivens</text>
</svg>
